#N canvas 1110 525 450 300 10;
#X obj 75 12 r \$0freq2;
#X obj 14 12 r \$0freq1;
#X obj 75 91 *~ 0.5;
#X obj 119 132 *~ 1;
#X obj 140 12 r \$0volume;
#X obj 75 60 osc~ 300;
#X obj 14 60 osc~ 220;
#X obj 118 212 dac~;
#X connect 0 0 5 0;
#X connect 1 0 6 0;
#X connect 2 0 3 0;
#X connect 3 0 7 0;
#X connect 4 0 3 1;
#X connect 5 0 2 0;
#X connect 6 0 2 0;
